<svg id="visual" viewBox="0 0 1349 632" width="1349" height="632" xmlns="http://www.w3.org/2000/svg" xmlns:xlink="http://www.w3.org/1999/xlink" version="1.1"><path d="M987 632L1029 632L1029 605L1047 605L1047 577L970 577L970 550L1078 550L1078 522L1099 522L1099 495L1086 495L1086 467L1121 467L1121 440L1001 440L1001 412L958 412L958 385L1125 385L1125 357L1036 357L1036 330L1028 330L1028 302L1057 302L1057 275L1046 275L1046 247L1092 247L1092 220L961 220L961 192L1084 192L1084 165L1136 165L1136 137L1118 137L1118 110L1122 110L1122 82L957 82L957 55L1059 55L1059 27L1053 27L1053 0L1349 0L1349 27L1349 27L1349 55L1349 55L1349 82L1349 82L1349 110L1349 110L1349 137L1349 137L1349 165L1349 165L1349 192L1349 192L1349 220L1349 220L1349 247L1349 247L1349 275L1349 275L1349 302L1349 302L1349 330L1349 330L1349 357L1349 357L1349 385L1349 385L1349 412L1349 412L1349 440L1349 440L1349 467L1349 467L1349 495L1349 495L1349 522L1349 522L1349 550L1349 550L1349 577L1349 577L1349 605L1349 605L1349 632L1349 632Z" fill="#7752fe"></path><path d="M1010 632L1023 632L1023 605L1005 605L1005 577L1074 577L1074 550L1125 550L1125 522L1089 522L1089 495L1091 495L1091 467L1114 467L1114 440L1131 440L1131 412L1032 412L1032 385L1084 385L1084 357L1110 357L1110 330L1031 330L1031 302L1079 302L1079 275L1148 275L1148 247L1002 247L1002 220L1164 220L1164 192L1069 192L1069 165L1103 165L1103 137L1145 137L1145 110L1022 110L1022 82L1141 82L1141 55L1025 55L1025 27L1075 27L1075 0L1349 0L1349 27L1349 27L1349 55L1349 55L1349 82L1349 82L1349 110L1349 110L1349 137L1349 137L1349 165L1349 165L1349 192L1349 192L1349 220L1349 220L1349 247L1349 247L1349 275L1349 275L1349 302L1349 302L1349 330L1349 330L1349 357L1349 357L1349 385L1349 385L1349 412L1349 412L1349 440L1349 440L1349 467L1349 467L1349 495L1349 495L1349 522L1349 522L1349 550L1349 550L1349 577L1349 577L1349 605L1349 605L1349 632L1349 632Z" fill="#795efe"></path><path d="M1155 632L1070 632L1070 605L1198 605L1198 577L1084 577L1084 550L1105 550L1105 522L1143 522L1143 495L1100 495L1100 467L1080 467L1080 440L1147 440L1147 412L1124 412L1124 385L1101 385L1101 357L1134 357L1134 330L1090 330L1090 302L1081 302L1081 275L1131 275L1131 247L1123 247L1123 220L1100 220L1100 192L1124 192L1124 165L1054 165L1054 137L1047 137L1047 110L1101 110L1101 82L1101 82L1101 55L1201 55L1201 27L1178 27L1178 0L1349 0L1349 27L1349 27L1349 55L1349 55L1349 82L1349 82L1349 110L1349 110L1349 137L1349 137L1349 165L1349 165L1349 192L1349 192L1349 220L1349 220L1349 247L1349 247L1349 275L1349 275L1349 302L1349 302L1349 330L1349 330L1349 357L1349 357L1349 385L1349 385L1349 412L1349 412L1349 440L1349 440L1349 467L1349 467L1349 495L1349 495L1349 522L1349 522L1349 550L1349 550L1349 577L1349 577L1349 605L1349 605L1349 632L1349 632Z" fill="#7c69fe"></path><path d="M1155 632L1147 632L1147 605L1238 605L1238 577L1212 577L1212 550L1195 550L1195 522L1116 522L1116 495L1207 495L1207 467L1230 467L1230 440L1183 440L1183 412L1181 412L1181 385L1158 385L1158 357L1156 357L1156 330L1209 330L1209 302L1204 302L1204 275L1217 275L1217 247L1148 247L1148 220L1236 220L1236 192L1109 192L1109 165L1159 165L1159 137L1151 137L1151 110L1123 110L1123 82L1121 82L1121 55L1173 55L1173 27L1204 27L1204 0L1349 0L1349 27L1349 27L1349 55L1349 55L1349 82L1349 82L1349 110L1349 110L1349 137L1349 137L1349 165L1349 165L1349 192L1349 192L1349 220L1349 220L1349 247L1349 247L1349 275L1349 275L1349 302L1349 302L1349 330L1349 330L1349 357L1349 357L1349 385L1349 385L1349 412L1349 412L1349 440L1349 440L1349 467L1349 467L1349 495L1349 495L1349 522L1349 522L1349 550L1349 550L1349 577L1349 577L1349 605L1349 605L1349 632L1349 632Z" fill="#7f73fe"></path><path d="M1216 632L1185 632L1185 605L1278 605L1278 577L1216 577L1216 550L1177 550L1177 522L1218 522L1218 495L1201 495L1201 467L1199 467L1199 440L1230 440L1230 412L1158 412L1158 385L1220 385L1220 357L1273 357L1273 330L1191 330L1191 302L1227 302L1227 275L1245 275L1245 247L1229 247L1229 220L1187 220L1187 192L1194 192L1194 165L1231 165L1231 137L1197 137L1197 110L1231 110L1231 82L1255 82L1255 55L1155 55L1155 27L1225 27L1225 0L1349 0L1349 27L1349 27L1349 55L1349 55L1349 82L1349 82L1349 110L1349 110L1349 137L1349 137L1349 165L1349 165L1349 192L1349 192L1349 220L1349 220L1349 247L1349 247L1349 275L1349 275L1349 302L1349 302L1349 330L1349 330L1349 357L1349 357L1349 385L1349 385L1349 412L1349 412L1349 440L1349 440L1349 467L1349 467L1349 495L1349 495L1349 522L1349 522L1349 550L1349 550L1349 577L1349 577L1349 605L1349 605L1349 632L1349 632Z" fill="#837dfd"></path><path d="M1281 632L1230 632L1230 605L1259 605L1259 577L1303 577L1303 550L1295 550L1295 522L1224 522L1224 495L1258 495L1258 467L1203 467L1203 440L1215 440L1215 412L1284 412L1284 385L1247 385L1247 357L1220 357L1220 330L1273 330L1273 302L1263 302L1263 275L1215 275L1215 247L1233 247L1233 220L1313 220L1313 192L1308 192L1308 165L1306 165L1306 137L1237 137L1237 110L1222 110L1222 82L1237 82L1237 55L1305 55L1305 27L1203 27L1203 0L1349 0L1349 27L1349 27L1349 55L1349 55L1349 82L1349 82L1349 110L1349 110L1349 137L1349 137L1349 165L1349 165L1349 192L1349 192L1349 220L1349 220L1349 247L1349 247L1349 275L1349 275L1349 302L1349 302L1349 330L1349 330L1349 357L1349 357L1349 385L1349 385L1349 412L1349 412L1349 440L1349 440L1349 467L1349 467L1349 495L1349 495L1349 522L1349 522L1349 550L1349 550L1349 577L1349 577L1349 605L1349 605L1349 632L1349 632Z" fill="#8886fc"></path><path d="M1318 632L1324 632L1324 605L1307 605L1307 577L1321 577L1321 550L1348 550L1348 522L1254 522L1254 495L1338 495L1338 467L1273 467L1273 440L1344 440L1344 412L1321 412L1321 385L1284 385L1284 357L1294 357L1294 330L1267 330L1267 302L1251 302L1251 275L1263 275L1263 247L1282 247L1282 220L1305 220L1305 192L1293 192L1293 165L1279 165L1279 137L1339 137L1339 110L1266 110L1266 82L1340 82L1340 55L1315 55L1315 27L1349 27L1349 0L1349 0L1349 27L1349 27L1349 55L1349 55L1349 82L1349 82L1349 110L1349 110L1349 137L1349 137L1349 165L1349 165L1349 192L1349 192L1349 220L1349 220L1349 247L1349 247L1349 275L1349 275L1349 302L1349 302L1349 330L1349 330L1349 357L1349 357L1349 385L1349 385L1349 412L1349 412L1349 440L1349 440L1349 467L1349 467L1349 495L1349 495L1349 522L1349 522L1349 550L1349 550L1349 577L1349 577L1349 605L1349 605L1349 632L1349 632Z" fill="#8e8ffa"></path></svg>