<svg width="1439" height="111" viewBox="0 0 1439 111" fill="none" xmlns="http://www.w3.org/2000/svg">
<path d="M0 99.9942L47.9667 98.8062C95.9333 97.7171 191.867 95.341 287.8 88.9057C383.733 82.4705 479.667 71.976 575.6 69.5009C671.533 67.0258 767.467 72.5701 863.4 82.4705C959.333 92.3709 1055.27 106.627 1151.2 110.093C1247.13 113.558 1343.07 106.231 1391.03 102.667L1439 99.0042V0H1391.03C1343.07 0 1247.13 0 1151.2 0C1055.27 0 959.333 0 863.4 0C767.467 0 671.533 0 575.6 0C479.667 0 383.733 0 287.8 0C191.867 0 95.9333 0 47.9667 0H0V99.9942Z" fill="#0066FF"/>
</svg>
